# xmcd CD database file
#
# Track frame offsets:
#	150
#	26304
#	108984
#	136059
#	152895
#	184989
#	210220
#
# Disc length: 3003 seconds
#
# Revision: 0
# Processed by: cddbd v1.5.2PL0 Copyright (c) Steve Scherf et al.
# Submitted via: CDex 1.50
#
DISCID=500bb907
DTITLE=Karunesh - Heart Symphony
DYEAR=1991
DGENRE=New Age
TTITLE0=Wide Open
TTITLE1=Heart Symphony: From Other Sph
TTITLE2=The Inner Temple
TTITLE3=Rays Of Hope
TTITLE4=Listen And Feel
TTITLE5=Once Upon A Time
TTITLE6=The Day Begins
EXTD=YEAR: 1991
EXTT0=
EXTT1=
EXTT2=
EXTT3=
EXTT4=
EXTT5=
EXTT6=
PLAYORDER=
